<?xml version="1.0" encoding="utf-8"?><!-- Uploaded to: SVG Repo, www.svgrepo.com, Generator: SVG Repo Mixer Tools -->
<svg width="800px" height="800px" viewBox="0 0 36 36" xmlns="http://www.w3.org/2000/svg" xmlns:xlink="http://www.w3.org/1999/xlink" aria-hidden="true" role="img" class="iconify iconify--twemoji" preserveAspectRatio="xMidYMid meet"><path fill="#DD2E44" d="M36 27a4 4 0 0 1-4 4H4a4 4 0 0 1-4-4v-3a4 4 0 0 1 4-4h28a4 4 0 0 1 4 4v3z"></path><path fill="#FFCC4D" d="M19 13l-.979-1H7.146C4 12 3 14 3 14l-3 5.959V25h19V13z"></path><path fill="#55ACEE" d="M9 20H2l2-4s1-2 3-2h2v6z"></path><circle fill="#292F33" cx="9" cy="31" r="4"></circle><circle fill="#CCD6DD" cx="9" cy="31" r="2"></circle><circle fill="#292F33" cx="27" cy="31" r="4"></circle><circle fill="#CCD6DD" cx="27" cy="31" r="2"></circle><path fill="#CCD6DD" d="M32 8H17a4 4 0 0 0-4 4v13h23V12a4 4 0 0 0-4-4z"></path></svg>